<mxfile host="app.diagrams.net" agent="Mozilla/5.0 (X11; Ubuntu; Linux x86_64; rv:137.0) Gecko/20100101 Firefox/137.0" version="26.2.14">
  <diagram name="Page-1" id="cofNUEIwuU3EI9z14Da7">
    <mxGraphModel dx="1356" dy="762" grid="1" gridSize="10" guides="1" tooltips="1" connect="1" arrows="1" fold="1" page="1" pageScale="1" pageWidth="850" pageHeight="1100" math="0" shadow="0">
      <root>
        <mxCell id="0" />
        <mxCell id="1" parent="0" />
        <mxCell id="enD-3PhAc3JDD586RiKJ-1" value="Kernel (mapped into process virtual memory, but not accessible to program)" style="rounded=0;whiteSpace=wrap;html=1;fillColor=#f8cecc;strokeColor=#b85450;" vertex="1" parent="1">
          <mxGeometry x="200" y="80" width="320" height="120" as="geometry" />
        </mxCell>
        <mxCell id="enD-3PhAc3JDD586RiKJ-2" value="&lt;i&gt;argv, environ&lt;/i&gt;" style="rounded=0;whiteSpace=wrap;html=1;fillColor=#fff2cc;strokeColor=#d6b656;" vertex="1" parent="1">
          <mxGeometry x="200" y="200" width="320" height="40" as="geometry" />
        </mxCell>
        <mxCell id="enD-3PhAc3JDD586RiKJ-3" value="Virtual memory address (hexadecimal)" style="text;html=1;align=center;verticalAlign=middle;whiteSpace=wrap;rounded=0;" vertex="1" parent="1">
          <mxGeometry x="40" y="50" width="160" height="30" as="geometry" />
        </mxCell>
        <mxCell id="enD-3PhAc3JDD586RiKJ-4" value="&lt;i&gt;/proc/kallsyms&lt;/i&gt; provides addresses of kernel symbols in this region " style="text;html=1;align=center;verticalAlign=middle;whiteSpace=wrap;rounded=0;" vertex="1" parent="1">
          <mxGeometry x="600" y="115" width="160" height="50" as="geometry" />
        </mxCell>
        <mxCell id="enD-3PhAc3JDD586RiKJ-5" style="edgeStyle=orthogonalEdgeStyle;rounded=0;orthogonalLoop=1;jettySize=auto;html=1;exitX=0;exitY=0.5;exitDx=0;exitDy=0;" edge="1" parent="1" source="enD-3PhAc3JDD586RiKJ-4">
          <mxGeometry relative="1" as="geometry">
            <mxPoint x="522" y="140" as="targetPoint" />
          </mxGeometry>
        </mxCell>
        <mxCell id="enD-3PhAc3JDD586RiKJ-6" value="&lt;i&gt;0xC0000000&lt;/i&gt;" style="text;html=1;align=center;verticalAlign=middle;whiteSpace=wrap;rounded=0;" vertex="1" parent="1">
          <mxGeometry x="40" y="205" width="160" height="30" as="geometry" />
        </mxCell>
        <mxCell id="enD-3PhAc3JDD586RiKJ-7" value="" style="rounded=0;whiteSpace=wrap;html=1;fillColor=#f5f5f5;fontColor=#333333;strokeColor=#666666;" vertex="1" parent="1">
          <mxGeometry x="200" y="240" width="320" height="320" as="geometry" />
        </mxCell>
        <mxCell id="enD-3PhAc3JDD586RiKJ-8" value="Stack (grows downwards)" style="text;html=1;align=center;verticalAlign=middle;whiteSpace=wrap;rounded=0;" vertex="1" parent="1">
          <mxGeometry x="285" y="260" width="150" height="30" as="geometry" />
        </mxCell>
        <mxCell id="enD-3PhAc3JDD586RiKJ-10" value="" style="endArrow=none;dashed=1;html=1;dashPattern=1 3;strokeWidth=2;rounded=0;exitX=0;exitY=0.25;exitDx=0;exitDy=0;entryX=1;entryY=0.25;entryDx=0;entryDy=0;" edge="1" parent="1" source="enD-3PhAc3JDD586RiKJ-7" target="enD-3PhAc3JDD586RiKJ-7">
          <mxGeometry width="50" height="50" relative="1" as="geometry">
            <mxPoint x="400" y="420" as="sourcePoint" />
            <mxPoint x="450" y="370" as="targetPoint" />
          </mxGeometry>
        </mxCell>
        <mxCell id="enD-3PhAc3JDD586RiKJ-12" style="edgeStyle=orthogonalEdgeStyle;rounded=0;orthogonalLoop=1;jettySize=auto;html=1;exitX=1;exitY=0.5;exitDx=0;exitDy=0;entryX=0;entryY=0.25;entryDx=0;entryDy=0;" edge="1" parent="1" source="enD-3PhAc3JDD586RiKJ-11" target="enD-3PhAc3JDD586RiKJ-7">
          <mxGeometry relative="1" as="geometry" />
        </mxCell>
        <mxCell id="enD-3PhAc3JDD586RiKJ-11" value="&lt;i&gt;Top of stack&lt;/i&gt;" style="text;html=1;align=center;verticalAlign=middle;whiteSpace=wrap;rounded=0;" vertex="1" parent="1">
          <mxGeometry x="50" y="290" width="110" height="30" as="geometry" />
        </mxCell>
        <mxCell id="enD-3PhAc3JDD586RiKJ-13" value="Uninitialized data (bss)" style="rounded=0;whiteSpace=wrap;html=1;fillColor=#ffe6cc;strokeColor=#d79b00;" vertex="1" parent="1">
          <mxGeometry x="200" y="560" width="320" height="40" as="geometry" />
        </mxCell>
        <mxCell id="enD-3PhAc3JDD586RiKJ-14" value="Initialized data" style="rounded=0;whiteSpace=wrap;html=1;fillColor=#dae8fc;strokeColor=#6c8ebf;" vertex="1" parent="1">
          <mxGeometry x="200" y="600" width="320" height="40" as="geometry" />
        </mxCell>
        <mxCell id="enD-3PhAc3JDD586RiKJ-15" value="Text (program code)" style="rounded=0;whiteSpace=wrap;html=1;fillColor=#d5e8d4;strokeColor=#82b366;" vertex="1" parent="1">
          <mxGeometry x="200" y="640" width="320" height="40" as="geometry" />
        </mxCell>
        <mxCell id="enD-3PhAc3JDD586RiKJ-16" value="" style="rounded=0;whiteSpace=wrap;html=1;" vertex="1" parent="1">
          <mxGeometry x="200" y="680" width="320" height="40" as="geometry" />
        </mxCell>
        <mxCell id="enD-3PhAc3JDD586RiKJ-17" value="&lt;i&gt;0x08048000&lt;/i&gt;" style="text;html=1;align=center;verticalAlign=middle;whiteSpace=wrap;rounded=0;" vertex="1" parent="1">
          <mxGeometry x="90" y="670" width="110" height="30" as="geometry" />
        </mxCell>
        <mxCell id="enD-3PhAc3JDD586RiKJ-18" value="&lt;i&gt;0x00000000&lt;/i&gt;" style="text;html=1;align=center;verticalAlign=middle;whiteSpace=wrap;rounded=0;" vertex="1" parent="1">
          <mxGeometry x="90" y="700" width="110" height="30" as="geometry" />
        </mxCell>
        <mxCell id="enD-3PhAc3JDD586RiKJ-19" value="" style="endArrow=classic;html=1;rounded=0;" edge="1" parent="1">
          <mxGeometry width="50" height="50" relative="1" as="geometry">
            <mxPoint x="80" y="720" as="sourcePoint" />
            <mxPoint x="80" y="480" as="targetPoint" />
          </mxGeometry>
        </mxCell>
        <mxCell id="enD-3PhAc3JDD586RiKJ-20" value="" style="endArrow=none;dashed=1;html=1;dashPattern=1 3;strokeWidth=2;rounded=0;exitX=0;exitY=0.25;exitDx=0;exitDy=0;entryX=1;entryY=0.25;entryDx=0;entryDy=0;" edge="1" parent="1">
          <mxGeometry width="50" height="50" relative="1" as="geometry">
            <mxPoint x="200" y="480" as="sourcePoint" />
            <mxPoint x="520" y="480" as="targetPoint" />
          </mxGeometry>
        </mxCell>
        <mxCell id="enD-3PhAc3JDD586RiKJ-21" value="Heap (grows upwards)" style="text;html=1;align=center;verticalAlign=middle;whiteSpace=wrap;rounded=0;" vertex="1" parent="1">
          <mxGeometry x="285" y="500" width="150" height="30" as="geometry" />
        </mxCell>
        <mxCell id="enD-3PhAc3JDD586RiKJ-22" value="increasing virtual addresses" style="text;html=1;align=center;verticalAlign=middle;whiteSpace=wrap;rounded=0;rotation=-90;" vertex="1" parent="1">
          <mxGeometry x="-20" y="590" width="170" height="30" as="geometry" />
        </mxCell>
        <mxCell id="enD-3PhAc3JDD586RiKJ-24" style="edgeStyle=orthogonalEdgeStyle;rounded=0;orthogonalLoop=1;jettySize=auto;html=1;exitX=0;exitY=0.5;exitDx=0;exitDy=0;entryX=1;entryY=0;entryDx=0;entryDy=0;" edge="1" parent="1" source="enD-3PhAc3JDD586RiKJ-23" target="enD-3PhAc3JDD586RiKJ-13">
          <mxGeometry relative="1" as="geometry">
            <Array as="points">
              <mxPoint x="560" y="550" />
              <mxPoint x="560" y="560" />
            </Array>
          </mxGeometry>
        </mxCell>
        <mxCell id="enD-3PhAc3JDD586RiKJ-23" value="end" style="text;html=1;align=center;verticalAlign=middle;whiteSpace=wrap;rounded=0;" vertex="1" parent="1">
          <mxGeometry x="600" y="535" width="60" height="30" as="geometry" />
        </mxCell>
        <mxCell id="enD-3PhAc3JDD586RiKJ-26" style="edgeStyle=orthogonalEdgeStyle;rounded=0;orthogonalLoop=1;jettySize=auto;html=1;exitX=0;exitY=0.5;exitDx=0;exitDy=0;entryX=1;entryY=0;entryDx=0;entryDy=0;" edge="1" parent="1" source="enD-3PhAc3JDD586RiKJ-25" target="enD-3PhAc3JDD586RiKJ-14">
          <mxGeometry relative="1" as="geometry">
            <Array as="points">
              <mxPoint x="560" y="595" />
              <mxPoint x="560" y="600" />
            </Array>
          </mxGeometry>
        </mxCell>
        <mxCell id="enD-3PhAc3JDD586RiKJ-25" value="edata" style="text;html=1;align=center;verticalAlign=middle;whiteSpace=wrap;rounded=0;" vertex="1" parent="1">
          <mxGeometry x="600" y="580" width="60" height="30" as="geometry" />
        </mxCell>
        <mxCell id="enD-3PhAc3JDD586RiKJ-28" style="edgeStyle=orthogonalEdgeStyle;rounded=0;orthogonalLoop=1;jettySize=auto;html=1;exitX=0;exitY=0.5;exitDx=0;exitDy=0;entryX=1;entryY=0;entryDx=0;entryDy=0;" edge="1" parent="1" source="enD-3PhAc3JDD586RiKJ-27" target="enD-3PhAc3JDD586RiKJ-15">
          <mxGeometry relative="1" as="geometry">
            <Array as="points">
              <mxPoint x="560" y="635" />
              <mxPoint x="560" y="640" />
            </Array>
          </mxGeometry>
        </mxCell>
        <mxCell id="enD-3PhAc3JDD586RiKJ-27" value="etext" style="text;html=1;align=center;verticalAlign=middle;whiteSpace=wrap;rounded=0;" vertex="1" parent="1">
          <mxGeometry x="600" y="620" width="60" height="30" as="geometry" />
        </mxCell>
      </root>
    </mxGraphModel>
  </diagram>
</mxfile>
